<svg width="350" height="164" viewBox="0 0 350 164" fill="none" xmlns="http://www.w3.org/2000/svg">
<path d="M126.195 48.0186L119.376 55.6815V50.062L121.11 48.0186H126.195Z" fill="#EC1E24"/>
<path d="M113.081 63.9996L118.753 57.6318V59.9271L113.081 63.9996Z" fill="#EC1E24"/>
<path d="M128 52.7246L119.376 58.9197V56.3798L122.628 52.7246H128Z" fill="#EC1E24"/>
<path d="M118.753 48.0186V56.7032L113.947 62.0061V48.0186H118.753Z" fill="#EC1E24"/>
<path d="M10.3712 59.0779V61.661C10.3712 61.8625 10.2065 62.0208 10.0131 62.0208H0.358122C0.157574 62.0208 0 61.8553 0 61.661V48.5297C0 48.3282 0.164736 48.1699 0.358122 48.1699H10.0131C10.2136 48.1699 10.3712 48.3354 10.3712 48.5297V51.0048C10.3712 51.2063 10.2065 51.3646 10.0131 51.3646H4.51234C4.31179 51.3646 4.15422 51.5301 4.15422 51.7244V53.0123C4.15422 53.2138 4.31895 53.3721 4.51234 53.3721H8.82413C9.02468 53.3721 9.18225 53.5376 9.18225 53.7318V56.0847C9.18225 56.2862 9.01751 56.4445 8.82413 56.4445H4.51234C4.31179 56.4445 4.15422 56.6099 4.15422 56.8042V58.344C4.15422 58.5455 4.31895 58.7038 4.51234 58.7038H10.0131C10.2136 58.7038 10.3712 58.8693 10.3712 59.0635V59.0779Z" fill="white"/>
<path d="M23.8368 48.6374L19.7829 61.7687C19.7327 61.9198 19.5966 62.0205 19.4391 62.0205H15.6501C15.4926 62.0205 15.3565 61.9198 15.3063 61.7687L11.0662 48.6374C10.9874 48.3999 11.1664 48.1625 11.41 48.1625H15.1058C15.2634 48.1625 15.4066 48.2704 15.4496 48.4215L17.5553 55.7103C17.5697 55.7606 17.5912 55.811 17.6055 55.8542C17.7129 56.1924 18.1928 56.1852 18.2931 55.8398L20.4275 48.4143C20.4705 48.256 20.6137 48.1553 20.7713 48.1553H23.493C23.7365 48.1553 23.9084 48.3927 23.8368 48.623V48.6374Z" fill="white"/>
<path d="M35.6329 59.0779V61.661C35.6329 61.8625 35.4682 62.0208 35.2748 62.0208H25.6198C25.4193 62.0208 25.2617 61.8553 25.2617 61.661V48.5297C25.2617 48.3282 25.4265 48.1699 25.6198 48.1699H35.2748C35.4754 48.1699 35.6329 48.3354 35.6329 48.5297V51.0048C35.6329 51.2063 35.4682 51.3646 35.2748 51.3646H29.7741C29.5735 51.3646 29.4159 51.5301 29.4159 51.7244V53.0123C29.4159 53.2138 29.5807 53.3721 29.7741 53.3721H34.0858C34.2864 53.3721 34.444 53.5376 34.444 53.7318V56.0847C34.444 56.2862 34.2792 56.4445 34.0858 56.4445H29.7741C29.5735 56.4445 29.4159 56.6099 29.4159 56.8042V58.344C29.4159 58.5455 29.5807 58.7038 29.7741 58.7038H35.2748C35.4754 58.7038 35.6329 58.8693 35.6329 59.0635V59.0779Z" fill="white"/>
<path d="M48.7403 62.0211H45.8539C45.7321 62.0211 45.6104 61.9564 45.5459 61.8484L41.8716 55.898C41.7211 55.6533 41.5707 55.3871 41.4132 55.1137C41.2341 54.7827 40.7327 54.9122 40.7399 55.2936C40.7399 55.2936 40.7399 55.308 40.7399 55.3152V61.6614C40.7399 61.8628 40.5752 62.0211 40.3818 62.0211H37.6672C37.4667 62.0211 37.3091 61.8556 37.3091 61.6614V48.53C37.3091 48.3286 37.4738 48.1703 37.6672 48.1703H41.1123C41.2341 48.1703 41.3487 48.235 41.4132 48.3358L44.5217 53.2429C44.7079 53.5379 44.8869 53.8257 45.0445 54.0992C45.2379 54.4301 45.7464 54.2718 45.7106 53.8905C45.6677 53.3509 45.6462 52.8112 45.6462 52.2644V48.5228C45.6462 48.3214 45.8109 48.1631 46.0043 48.1631H48.726C48.9266 48.1631 49.0841 48.3286 49.0841 48.5228V61.6542C49.0841 61.8556 48.9194 62.0139 48.726 62.0139L48.7403 62.0211Z" fill="white"/>
<path d="M57.1707 51.8467V61.661C57.1707 61.8625 57.006 62.0208 56.8126 62.0208H53.525C53.3245 62.0208 53.1669 61.8553 53.1669 61.661V51.8467C53.1669 51.6452 53.0022 51.4869 52.8088 51.4869H50.6672C50.4667 51.4869 50.3091 51.3214 50.3091 51.1272V48.5297C50.3091 48.3282 50.4738 48.1699 50.6672 48.1699H59.6776C59.8781 48.1699 60.0357 48.3354 60.0357 48.5297V51.1272C60.0357 51.3286 59.8709 51.4869 59.6776 51.4869H57.536C57.3354 51.4869 57.1779 51.6524 57.1779 51.8467H57.1707Z" fill="white"/>
<path d="M60.501 57.9411L63.7313 57.3583C63.896 57.3295 64.0607 57.4158 64.1252 57.5669C64.5048 58.5095 65.3213 58.9772 66.5819 58.9772C67.6491 58.9772 68.1791 58.6966 68.1791 58.1282C68.1791 57.8332 68.0574 57.5957 67.8138 57.4302C67.5703 57.2647 67.1263 57.1208 66.496 56.9913C64.0751 56.5236 62.528 55.9192 61.8404 55.1637C61.1528 54.4154 60.809 53.5304 60.809 52.5159C60.809 51.2064 61.3032 50.1271 62.2916 49.2564C63.28 48.393 64.6982 47.9541 66.5533 47.9541C69.1962 47.9541 70.994 48.9542 71.9466 50.9617C72.0397 51.1632 71.9466 51.4078 71.7245 51.4726L68.9097 52.3288C68.745 52.3792 68.5731 52.3072 68.4943 52.1561C68.1003 51.4006 67.3984 51.0265 66.4028 51.0265C65.4789 51.0265 65.0205 51.3143 65.0205 51.8899C65.0205 52.1489 65.1279 52.3432 65.3356 52.4871C65.5434 52.631 65.9516 52.7677 66.5461 52.89C68.1935 53.2426 69.3681 53.552 70.0629 53.8182C70.7576 54.0845 71.3378 54.5521 71.8033 55.1997C72.2689 55.8545 72.4981 56.6244 72.4981 57.5094C72.4981 58.9125 71.9323 60.0493 70.8006 60.9199C69.6689 61.7906 68.1863 62.2223 66.3455 62.2223C63.1511 62.2223 61.117 60.9487 60.2503 58.4088C60.1787 58.2001 60.3076 57.9699 60.5296 57.9267L60.501 57.9411Z" fill="#EC1E24"/>
<path d="M78.386 57.3511V61.661C78.386 61.8625 78.2213 62.0208 78.0279 62.0208H74.4538C74.2533 62.0208 74.0957 61.8553 74.0957 61.661V48.5297C74.0957 48.3282 74.2604 48.1699 74.4538 48.1699H79.9832C81.4515 48.1699 82.5689 48.3354 83.3352 48.6808C84.1016 49.019 84.7033 49.537 85.1545 50.235C85.6057 50.9329 85.8278 51.71 85.8278 52.5806C85.8278 53.8973 85.3694 54.9622 84.4526 55.7753C83.5358 56.5884 82.311 56.9913 80.7854 56.9913H78.7513C78.5507 56.9913 78.3932 57.1568 78.3932 57.3511H78.386ZM78.3287 53.6527C78.3287 53.8542 78.4934 54.0125 78.6868 54.0125H79.7397C80.986 54.0125 81.6091 53.552 81.6091 52.631C81.6091 51.7675 81.0361 51.3286 79.883 51.3286H78.6868C78.4863 51.3286 78.3287 51.4941 78.3287 51.6884V53.6455V53.6527Z" fill="#EC1E24"/>
<path d="M94.0355 61.7614L93.4052 59.5524C93.3622 59.3941 93.2189 59.2934 93.0614 59.2934H89.9027C89.7452 59.2934 89.6019 59.3941 89.5589 59.5524L88.8857 61.7686C88.8427 61.9197 88.6994 62.0276 88.5419 62.0276H85.8631C85.6196 62.0276 85.4477 61.7902 85.5193 61.5599L89.5518 48.4286C89.6019 48.2775 89.738 48.1768 89.8956 48.1768H93.8421C93.9996 48.1768 94.1357 48.2775 94.1859 48.4286L98.2828 61.5599C98.3544 61.7902 98.1825 62.0276 97.939 62.0276H94.3793C94.2217 62.0276 94.0784 61.9197 94.0355 61.7686V61.7614ZM90.8339 56.2714H92.1159C92.3523 56.2714 92.5242 56.0412 92.4597 55.8109L91.8223 53.5012C91.722 53.1487 91.2278 53.1487 91.1275 53.5012L90.4901 55.8109C90.4256 56.0412 90.5975 56.2714 90.8339 56.2714Z" fill="#EC1E24"/>
<path d="M111.44 62.0208H107.537C107.386 62.0208 107.25 61.9272 107.2 61.7905L105.359 56.9553C105.309 56.8186 105.173 56.7251 105.023 56.7251H104.299C104.099 56.7251 103.941 56.8906 103.941 57.0848V61.661C103.941 61.8625 103.776 62.0208 103.583 62.0208H100.073C99.8729 62.0208 99.7153 61.8553 99.7153 61.661V48.5297C99.7153 48.3282 99.8801 48.1699 100.073 48.1699H106.914C108.504 48.1699 109.736 48.5441 110.617 49.2924C111.498 50.0407 111.934 51.0264 111.934 52.2496C111.934 53.0483 111.77 53.7534 111.447 54.365C111.161 54.9119 110.602 55.4011 109.786 55.8329C109.621 55.9192 109.542 56.1207 109.614 56.2934L111.777 61.5171C111.877 61.7545 111.698 62.0208 111.447 62.0208H111.44ZM103.941 53.3937C103.941 53.5951 104.106 53.7534 104.299 53.7534H105.746C106.276 53.7534 106.706 53.6383 107.028 53.4153C107.351 53.1922 107.515 52.8612 107.515 52.4295C107.515 51.5445 106.971 51.0984 105.889 51.0984H104.299C104.099 51.0984 103.941 51.2639 103.941 51.4581V53.3865V53.3937Z" fill="#EC1E24"/>
<path d="M127.807 45.0908H0.193359V45.6377H127.807V45.0908Z" fill="white"/>
<path d="M43.2852 6.93898V42.1822L63.6476 21.3883L47.7143 5.1138C46.0893 3.45521 43.2852 4.61405 43.2852 6.94622V6.93898Z" fill="#F47E20"/>
<path d="M18.4004 42.1746H42.2788L22.9805 18.7516C21.4346 16.8757 18.4076 17.9766 18.4076 20.4174V42.1819L18.4004 42.1746Z" fill="#F47E20"/>
<path d="M5.03369 42.1746H17.0987L9.86546 29.355C8.55686 27.03 5.03369 27.9716 5.03369 30.6442V42.1746Z" fill="#F47E20"/>
<path d="M109.6 42.1746H85.7212L105.02 18.7516C106.565 16.8757 109.592 17.9766 109.592 20.4174V42.1819L109.6 42.1746Z" fill="#EC1E24"/>
<path d="M122.966 42.1746H110.901L118.135 29.355C119.443 27.03 122.966 27.9716 122.966 30.6442V42.1746Z" fill="#EC1E24"/>
<path d="M63.6475 21.3806L84.0099 42.1745V6.93128C84.0099 4.59911 81.2058 3.44752 79.5808 5.09886L63.6475 21.3733V21.3806Z" fill="#EC1E24"/>
<path d="M43.2852 42.1748H84.0101L63.6476 21.3809L43.2852 42.1748Z" fill="white"/>
<path d="M50.9429 6.36626C52.6254 6.36626 53.9987 4.99013 53.9987 3.28809C53.9987 4.98289 55.3648 6.36626 57.0545 6.36626C55.372 6.36626 53.9987 7.74238 53.9987 9.44443C53.9987 7.74962 52.6326 6.36626 50.9429 6.36626Z" fill="#F47E20"/>
<path d="M59.4305 3.80245C60.4728 3.80245 61.3179 2.95124 61.3179 1.90122C61.3179 0.851207 60.4728 0 59.4305 0C58.3881 0 57.543 0.851207 57.543 1.90122C57.543 2.95124 58.3881 3.80245 59.4305 3.80245Z" fill="#F47E20"/>
<path d="M9.456 119.24C8.24 119.24 7.112 119.024 6.072 118.592C5.048 118.144 4.152 117.528 3.384 116.744C2.616 115.944 2.024 115.024 1.608 113.984C1.192 112.928 0.984 111.8 0.984 110.6C0.984 109.4 1.192 108.28 1.608 107.24C2.024 106.184 2.616 105.264 3.384 104.48C4.152 103.696 5.048 103.08 6.072 102.632C7.112 102.184 8.24 101.96 9.456 101.96C10.816 101.96 11.992 102.184 12.984 102.632C13.976 103.08 14.856 103.688 15.624 104.456L13.752 106.328C13.256 105.784 12.648 105.36 11.928 105.056C11.224 104.752 10.4 104.6 9.456 104.6C8.624 104.6 7.864 104.744 7.176 105.032C6.488 105.32 5.888 105.736 5.376 106.28C4.88 106.808 4.496 107.44 4.224 108.176C3.952 108.912 3.816 109.72 3.816 110.6C3.816 111.48 3.952 112.288 4.224 113.024C4.496 113.76 4.88 114.4 5.376 114.944C5.888 115.472 6.488 115.88 7.176 116.168C7.864 116.456 8.624 116.6 9.456 116.6C10.48 116.6 11.344 116.448 12.048 116.144C12.768 115.824 13.376 115.392 13.872 114.848L15.744 116.72C14.976 117.504 14.072 118.12 13.032 118.568C11.992 119.016 10.8 119.24 9.456 119.24ZM18.0968 119V107.48H20.7368V119H18.0968ZM20.7368 112.592L19.8248 112.136C19.8248 110.68 20.1448 109.504 20.7848 108.608C21.4408 107.696 22.4248 107.24 23.7368 107.24C24.3128 107.24 24.8328 107.344 25.2968 107.552C25.7608 107.76 26.1928 108.096 26.5928 108.56L24.8648 110.336C24.6568 110.112 24.4248 109.952 24.1688 109.856C23.9128 109.76 23.6168 109.712 23.2808 109.712C22.5448 109.712 21.9368 109.944 21.4568 110.408C20.9768 110.872 20.7368 111.6 20.7368 112.592ZM33.1207 119.24C31.9687 119.24 30.9287 118.984 30.0007 118.472C29.0887 117.944 28.3607 117.224 27.8167 116.312C27.2887 115.4 27.0247 114.376 27.0247 113.24C27.0247 112.104 27.2887 111.088 27.8167 110.192C28.3447 109.28 29.0567 108.56 29.9527 108.032C30.8647 107.504 31.8727 107.24 32.9767 107.24C34.0487 107.24 34.9927 107.488 35.8087 107.984C36.6407 108.48 37.2887 109.16 37.7527 110.024C38.2327 110.888 38.4727 111.872 38.4727 112.976C38.4727 113.168 38.4567 113.368 38.4247 113.576C38.4087 113.768 38.3767 113.984 38.3287 114.224H28.8727V112.064H36.9607L35.9767 112.928C35.9447 112.224 35.8087 111.632 35.5687 111.152C35.3287 110.672 34.9847 110.304 34.5367 110.048C34.1047 109.792 33.5687 109.664 32.9287 109.664C32.2567 109.664 31.6727 109.808 31.1767 110.096C30.6807 110.384 30.2967 110.792 30.0247 111.32C29.7527 111.832 29.6167 112.448 29.6167 113.168C29.6167 113.888 29.7607 114.52 30.0487 115.064C30.3367 115.608 30.7447 116.032 31.2727 116.336C31.8007 116.624 32.4087 116.768 33.0967 116.768C33.6887 116.768 34.2327 116.664 34.7287 116.456C35.2407 116.248 35.6727 115.944 36.0247 115.544L37.7047 117.248C37.1447 117.904 36.4647 118.4 35.6647 118.736C34.8647 119.072 34.0167 119.24 33.1207 119.24ZM45.663 119.24C44.623 119.24 43.679 118.976 42.831 118.448C41.999 117.92 41.335 117.208 40.839 116.312C40.359 115.4 40.119 114.384 40.119 113.264C40.119 112.128 40.359 111.112 40.839 110.216C41.335 109.304 41.999 108.584 42.831 108.056C43.679 107.512 44.623 107.24 45.663 107.24C46.543 107.24 47.319 107.432 47.991 107.816C48.679 108.184 49.223 108.696 49.623 109.352C50.023 110.008 50.223 110.752 50.223 111.584V114.896C50.223 115.728 50.023 116.472 49.623 117.128C49.239 117.784 48.703 118.304 48.015 118.688C47.327 119.056 46.543 119.24 45.663 119.24ZM46.095 116.744C47.071 116.744 47.855 116.416 48.447 115.76C49.055 115.104 49.359 114.264 49.359 113.24C49.359 112.552 49.223 111.944 48.951 111.416C48.679 110.888 48.295 110.48 47.799 110.192C47.319 109.888 46.751 109.736 46.095 109.736C45.455 109.736 44.887 109.888 44.391 110.192C43.911 110.48 43.527 110.888 43.239 111.416C42.967 111.944 42.831 112.552 42.831 113.24C42.831 113.928 42.967 114.536 43.239 115.064C43.527 115.592 43.911 116.008 44.391 116.312C44.887 116.6 45.455 116.744 46.095 116.744ZM49.191 119V115.904L49.647 113.096L49.191 110.312V107.48H51.831V119H49.191ZM56.7629 119V102.68H59.4029V119H56.7629ZM54.0029 109.88V107.48H62.1629V109.88H54.0029ZM69.3551 119.24C68.2031 119.24 67.1631 118.984 66.2351 118.472C65.3231 117.944 64.5951 117.224 64.0511 116.312C63.5231 115.4 63.2591 114.376 63.2591 113.24C63.2591 112.104 63.5231 111.088 64.0511 110.192C64.5791 109.28 65.2911 108.56 66.1871 108.032C67.0991 107.504 68.1071 107.24 69.2111 107.24C70.2831 107.24 71.2271 107.488 72.0431 107.984C72.8751 108.48 73.5231 109.16 73.9871 110.024C74.4671 110.888 74.7071 111.872 74.7071 112.976C74.7071 113.168 74.6911 113.368 74.6591 113.576C74.6431 113.768 74.6111 113.984 74.5631 114.224H65.1071V112.064H73.1951L72.2111 112.928C72.1791 112.224 72.0431 111.632 71.8031 111.152C71.5631 110.672 71.2191 110.304 70.7711 110.048C70.3391 109.792 69.8031 109.664 69.1631 109.664C68.4911 109.664 67.9071 109.808 67.4111 110.096C66.9151 110.384 66.5311 110.792 66.2591 111.32C65.9871 111.832 65.8511 112.448 65.8511 113.168C65.8511 113.888 65.9951 114.52 66.2831 115.064C66.5711 115.608 66.9791 116.032 67.5071 116.336C68.0351 116.624 68.6431 116.768 69.3311 116.768C69.9231 116.768 70.4671 116.664 70.9631 116.456C71.4751 116.248 71.9071 115.944 72.2591 115.544L73.9391 117.248C73.3791 117.904 72.6991 118.4 71.8991 118.736C71.0991 119.072 70.2511 119.24 69.3551 119.24ZM77.0734 121.808L78.7054 118.76L79.5934 118.52C79.4974 118.712 79.3854 118.872 79.2574 119C79.1294 119.128 78.9774 119.192 78.8014 119.192C78.4334 119.192 78.0894 119.04 77.7694 118.736C77.4654 118.416 77.3134 118.016 77.3134 117.536C77.3134 117.024 77.4814 116.592 77.8174 116.24C78.1694 115.872 78.6014 115.688 79.1134 115.688C79.5934 115.688 80.0094 115.872 80.3614 116.24C80.7294 116.592 80.9134 117.024 80.9134 117.536C80.9134 117.744 80.8654 117.992 80.7694 118.28C80.6894 118.552 80.5374 118.904 80.3134 119.336L78.5374 122.6L77.0734 121.808ZM97.0029 119.24C95.7869 119.24 94.6589 119.024 93.6189 118.592C92.5949 118.144 91.6989 117.528 90.9309 116.744C90.1629 115.944 89.5709 115.024 89.1549 113.984C88.7389 112.928 88.5309 111.8 88.5309 110.6C88.5309 109.4 88.7389 108.28 89.1549 107.24C89.5709 106.184 90.1629 105.264 90.9309 104.48C91.6989 103.696 92.5949 103.08 93.6189 102.632C94.6589 102.184 95.7869 101.96 97.0029 101.96C98.3629 101.96 99.5389 102.184 100.531 102.632C101.523 103.08 102.403 103.688 103.171 104.456L101.299 106.328C100.803 105.784 100.195 105.36 99.4749 105.056C98.7709 104.752 97.9469 104.6 97.0029 104.6C96.1709 104.6 95.4109 104.744 94.7229 105.032C94.0349 105.32 93.4349 105.736 92.9229 106.28C92.4269 106.808 92.0429 107.44 91.7709 108.176C91.4989 108.912 91.3629 109.72 91.3629 110.6C91.3629 111.48 91.4989 112.288 91.7709 113.024C92.0429 113.76 92.4269 114.4 92.9229 114.944C93.4349 115.472 94.0349 115.88 94.7229 116.168C95.4109 116.456 96.1709 116.6 97.0029 116.6C98.0269 116.6 98.8909 116.448 99.5949 116.144C100.315 115.824 100.923 115.392 101.419 114.848L103.291 116.72C102.523 117.504 101.619 118.12 100.579 118.568C99.5389 119.016 98.3469 119.24 97.0029 119.24ZM110.572 119.24C109.452 119.24 108.436 118.976 107.524 118.448C106.612 117.904 105.884 117.176 105.34 116.264C104.812 115.352 104.548 114.336 104.548 113.216C104.548 112.096 104.812 111.088 105.34 110.192C105.884 109.296 106.612 108.584 107.524 108.056C108.436 107.512 109.452 107.24 110.572 107.24C111.708 107.24 112.732 107.504 113.644 108.032C114.556 108.56 115.276 109.28 115.804 110.192C116.348 111.088 116.62 112.096 116.62 113.216C116.62 114.336 116.348 115.352 115.804 116.264C115.276 117.176 114.556 117.904 113.644 118.448C112.732 118.976 111.708 119.24 110.572 119.24ZM110.572 116.696C111.228 116.696 111.804 116.552 112.3 116.264C112.812 115.96 113.204 115.544 113.476 115.016C113.764 114.488 113.908 113.888 113.908 113.216C113.908 112.544 113.764 111.952 113.476 111.44C113.188 110.928 112.796 110.528 112.3 110.24C111.804 109.936 111.228 109.784 110.572 109.784C109.932 109.784 109.356 109.936 108.844 110.24C108.348 110.528 107.956 110.928 107.668 111.44C107.396 111.952 107.26 112.544 107.26 113.216C107.26 113.888 107.396 114.488 107.668 115.016C107.956 115.544 108.348 115.96 108.844 116.264C109.356 116.552 109.932 116.696 110.572 116.696ZM126.962 119V112.352C126.962 111.584 126.714 110.952 126.218 110.456C125.738 109.96 125.114 109.712 124.346 109.712C123.834 109.712 123.378 109.824 122.978 110.048C122.578 110.272 122.266 110.584 122.042 110.984C121.818 111.384 121.706 111.84 121.706 112.352L120.674 111.776C120.674 110.896 120.866 110.12 121.25 109.448C121.634 108.76 122.162 108.224 122.834 107.84C123.522 107.44 124.29 107.24 125.138 107.24C126.002 107.24 126.77 107.464 127.442 107.912C128.114 108.344 128.642 108.912 129.026 109.616C129.41 110.304 129.602 111.024 129.602 111.776V119H126.962ZM119.066 119V107.48H121.706V119H119.066ZM140.43 119V112.352C140.43 111.584 140.182 110.952 139.686 110.456C139.206 109.96 138.582 109.712 137.814 109.712C137.302 109.712 136.846 109.824 136.446 110.048C136.046 110.272 135.734 110.584 135.51 110.984C135.286 111.384 135.174 111.84 135.174 112.352L134.142 111.776C134.142 110.896 134.334 110.12 134.718 109.448C135.102 108.76 135.63 108.224 136.302 107.84C136.99 107.44 137.758 107.24 138.606 107.24C139.47 107.24 140.238 107.464 140.91 107.912C141.582 108.344 142.11 108.912 142.494 109.616C142.878 110.304 143.07 111.024 143.07 111.776V119H140.43ZM132.534 119V107.48H135.174V119H132.534ZM151.355 119.24C150.203 119.24 149.163 118.984 148.235 118.472C147.323 117.944 146.595 117.224 146.051 116.312C145.523 115.4 145.259 114.376 145.259 113.24C145.259 112.104 145.523 111.088 146.051 110.192C146.579 109.28 147.291 108.56 148.187 108.032C149.099 107.504 150.107 107.24 151.211 107.24C152.283 107.24 153.227 107.488 154.043 107.984C154.875 108.48 155.523 109.16 155.987 110.024C156.467 110.888 156.707 111.872 156.707 112.976C156.707 113.168 156.691 113.368 156.659 113.576C156.643 113.768 156.611 113.984 156.563 114.224H147.107V112.064H155.195L154.211 112.928C154.179 112.224 154.043 111.632 153.803 111.152C153.563 110.672 153.219 110.304 152.771 110.048C152.339 109.792 151.803 109.664 151.163 109.664C150.491 109.664 149.907 109.808 149.411 110.096C148.915 110.384 148.531 110.792 148.259 111.32C147.987 111.832 147.851 112.448 147.851 113.168C147.851 113.888 147.995 114.52 148.283 115.064C148.571 115.608 148.979 116.032 149.507 116.336C150.035 116.624 150.643 116.768 151.331 116.768C151.923 116.768 152.467 116.664 152.963 116.456C153.475 116.248 153.907 115.944 154.259 115.544L155.939 117.248C155.379 117.904 154.699 118.4 153.899 118.736C153.099 119.072 152.251 119.24 151.355 119.24ZM164.377 119.24C163.241 119.24 162.209 118.976 161.281 118.448C160.369 117.92 159.649 117.2 159.121 116.288C158.593 115.376 158.329 114.36 158.329 113.24C158.329 112.104 158.593 111.088 159.121 110.192C159.649 109.28 160.369 108.56 161.281 108.032C162.209 107.504 163.241 107.24 164.377 107.24C165.273 107.24 166.105 107.416 166.873 107.768C167.657 108.104 168.321 108.592 168.865 109.232L167.137 110.984C166.801 110.584 166.393 110.288 165.913 110.096C165.449 109.888 164.937 109.784 164.377 109.784C163.721 109.784 163.137 109.936 162.625 110.24C162.129 110.528 161.737 110.928 161.449 111.44C161.177 111.952 161.041 112.552 161.041 113.24C161.041 113.912 161.177 114.512 161.449 115.04C161.737 115.552 162.129 115.96 162.625 116.264C163.137 116.552 163.721 116.696 164.377 116.696C164.937 116.696 165.449 116.6 165.913 116.408C166.393 116.2 166.801 115.896 167.137 115.496L168.865 117.248C168.321 117.888 167.657 118.384 166.873 118.736C166.105 119.072 165.273 119.24 164.377 119.24ZM172.583 119V102.68H175.223V119H172.583ZM169.823 109.88V107.48H177.983V109.88H169.823ZM179.331 121.808L180.963 118.76L181.851 118.52C181.755 118.712 181.643 118.872 181.515 119C181.387 119.128 181.235 119.192 181.059 119.192C180.691 119.192 180.347 119.04 180.027 118.736C179.723 118.416 179.571 118.016 179.571 117.536C179.571 117.024 179.739 116.592 180.075 116.24C180.427 115.872 180.859 115.688 181.371 115.688C181.851 115.688 182.267 115.872 182.619 116.24C182.987 116.592 183.171 117.024 183.171 117.536C183.171 117.744 183.123 117.992 183.027 118.28C182.947 118.552 182.795 118.904 182.571 119.336L180.795 122.6L179.331 121.808ZM199.261 119.24C198.045 119.24 196.917 119.024 195.877 118.592C194.853 118.144 193.957 117.528 193.189 116.744C192.421 115.944 191.829 115.024 191.413 113.984C190.997 112.928 190.789 111.8 190.789 110.6C190.789 109.4 190.997 108.28 191.413 107.24C191.829 106.184 192.421 105.264 193.189 104.48C193.957 103.696 194.853 103.08 195.877 102.632C196.917 102.184 198.045 101.96 199.261 101.96C200.621 101.96 201.797 102.184 202.789 102.632C203.781 103.08 204.661 103.688 205.429 104.456L203.557 106.328C203.061 105.784 202.453 105.36 201.733 105.056C201.029 104.752 200.205 104.6 199.261 104.6C198.429 104.6 197.669 104.744 196.981 105.032C196.293 105.32 195.693 105.736 195.181 106.28C194.685 106.808 194.301 107.44 194.029 108.176C193.757 108.912 193.621 109.72 193.621 110.6C193.621 111.48 193.757 112.288 194.029 113.024C194.301 113.76 194.685 114.4 195.181 114.944C195.693 115.472 196.293 115.88 196.981 116.168C197.669 116.456 198.429 116.6 199.261 116.6C200.285 116.6 201.149 116.448 201.853 116.144C202.573 115.824 203.181 115.392 203.677 114.848L205.549 116.72C204.781 117.504 203.877 118.12 202.837 118.568C201.797 119.016 200.605 119.24 199.261 119.24ZM212.902 119.24C211.75 119.24 210.71 118.984 209.782 118.472C208.87 117.944 208.142 117.224 207.598 116.312C207.07 115.4 206.806 114.376 206.806 113.24C206.806 112.104 207.07 111.088 207.598 110.192C208.126 109.28 208.838 108.56 209.734 108.032C210.646 107.504 211.654 107.24 212.758 107.24C213.83 107.24 214.774 107.488 215.59 107.984C216.422 108.48 217.07 109.16 217.534 110.024C218.014 110.888 218.254 111.872 218.254 112.976C218.254 113.168 218.238 113.368 218.206 113.576C218.19 113.768 218.158 113.984 218.11 114.224H208.654V112.064H216.742L215.758 112.928C215.726 112.224 215.59 111.632 215.35 111.152C215.11 110.672 214.766 110.304 214.318 110.048C213.886 109.792 213.35 109.664 212.71 109.664C212.038 109.664 211.454 109.808 210.958 110.096C210.462 110.384 210.078 110.792 209.806 111.32C209.534 111.832 209.398 112.448 209.398 113.168C209.398 113.888 209.542 114.52 209.83 115.064C210.118 115.608 210.526 116.032 211.054 116.336C211.582 116.624 212.19 116.768 212.878 116.768C213.47 116.768 214.014 116.664 214.51 116.456C215.022 116.248 215.454 115.944 215.806 115.544L217.486 117.248C216.926 117.904 216.246 118.4 215.446 118.736C214.646 119.072 213.798 119.24 212.902 119.24ZM220.62 119V101.72H223.26V119H220.62ZM231.8 119.24C230.648 119.24 229.608 118.984 228.68 118.472C227.768 117.944 227.04 117.224 226.496 116.312C225.968 115.4 225.704 114.376 225.704 113.24C225.704 112.104 225.968 111.088 226.496 110.192C227.024 109.28 227.736 108.56 228.632 108.032C229.544 107.504 230.552 107.24 231.656 107.24C232.728 107.24 233.672 107.488 234.488 107.984C235.32 108.48 235.968 109.16 236.432 110.024C236.912 110.888 237.152 111.872 237.152 112.976C237.152 113.168 237.136 113.368 237.104 113.576C237.088 113.768 237.056 113.984 237.008 114.224H227.552V112.064H235.64L234.656 112.928C234.624 112.224 234.488 111.632 234.248 111.152C234.008 110.672 233.664 110.304 233.216 110.048C232.784 109.792 232.248 109.664 231.608 109.664C230.936 109.664 230.352 109.808 229.856 110.096C229.36 110.384 228.976 110.792 228.704 111.32C228.432 111.832 228.296 112.448 228.296 113.168C228.296 113.888 228.44 114.52 228.728 115.064C229.016 115.608 229.424 116.032 229.952 116.336C230.48 116.624 231.088 116.768 231.776 116.768C232.368 116.768 232.912 116.664 233.408 116.456C233.92 116.248 234.352 115.944 234.704 115.544L236.384 117.248C235.824 117.904 235.144 118.4 234.344 118.736C233.544 119.072 232.696 119.24 231.8 119.24ZM245.687 119.24C244.807 119.24 244.023 119.056 243.335 118.688C242.647 118.304 242.103 117.784 241.703 117.128C241.319 116.472 241.127 115.728 241.127 114.896V111.584C241.127 110.752 241.327 110.008 241.727 109.352C242.127 108.696 242.671 108.184 243.359 107.816C244.047 107.432 244.823 107.24 245.687 107.24C246.727 107.24 247.663 107.512 248.495 108.056C249.343 108.584 250.007 109.304 250.487 110.216C250.983 111.112 251.231 112.128 251.231 113.264C251.231 114.384 250.983 115.4 250.487 116.312C250.007 117.208 249.343 117.92 248.495 118.448C247.663 118.976 246.727 119.24 245.687 119.24ZM245.255 116.744C245.895 116.744 246.455 116.6 246.935 116.312C247.431 116.008 247.815 115.592 248.087 115.064C248.375 114.536 248.519 113.928 248.519 113.24C248.519 112.552 248.375 111.944 248.087 111.416C247.815 110.888 247.431 110.48 246.935 110.192C246.455 109.888 245.895 109.736 245.255 109.736C244.615 109.736 244.047 109.888 243.551 110.192C243.055 110.48 242.671 110.888 242.399 111.416C242.127 111.944 241.991 112.552 241.991 113.24C241.991 113.928 242.127 114.536 242.399 115.064C242.671 115.592 243.055 116.008 243.551 116.312C244.047 116.6 244.615 116.744 245.255 116.744ZM239.519 119V101.72H242.159V110.312L241.703 113.096L242.159 115.904V119H239.519ZM253.691 119V107.48H256.331V119H253.691ZM256.331 112.592L255.419 112.136C255.419 110.68 255.739 109.504 256.379 108.608C257.035 107.696 258.019 107.24 259.331 107.24C259.907 107.24 260.427 107.344 260.891 107.552C261.355 107.76 261.787 108.096 262.187 108.56L260.459 110.336C260.251 110.112 260.019 109.952 259.763 109.856C259.507 109.76 259.211 109.712 258.875 109.712C258.139 109.712 257.531 109.944 257.051 110.408C256.571 110.872 256.331 111.6 256.331 112.592ZM268.186 119.24C267.146 119.24 266.202 118.976 265.354 118.448C264.522 117.92 263.858 117.208 263.362 116.312C262.882 115.4 262.642 114.384 262.642 113.264C262.642 112.128 262.882 111.112 263.362 110.216C263.858 109.304 264.522 108.584 265.354 108.056C266.202 107.512 267.146 107.24 268.186 107.24C269.066 107.24 269.842 107.432 270.514 107.816C271.202 108.184 271.746 108.696 272.146 109.352C272.546 110.008 272.746 110.752 272.746 111.584V114.896C272.746 115.728 272.546 116.472 272.146 117.128C271.762 117.784 271.226 118.304 270.538 118.688C269.85 119.056 269.066 119.24 268.186 119.24ZM268.618 116.744C269.594 116.744 270.378 116.416 270.97 115.76C271.578 115.104 271.882 114.264 271.882 113.24C271.882 112.552 271.746 111.944 271.474 111.416C271.202 110.888 270.818 110.48 270.322 110.192C269.842 109.888 269.274 109.736 268.618 109.736C267.978 109.736 267.41 109.888 266.914 110.192C266.434 110.48 266.05 110.888 265.762 111.416C265.49 111.944 265.354 112.552 265.354 113.24C265.354 113.928 265.49 114.536 265.762 115.064C266.05 115.592 266.434 116.008 266.914 116.312C267.41 116.6 267.978 116.744 268.618 116.744ZM271.714 119V115.904L272.17 113.096L271.714 110.312V107.48H274.354V119H271.714ZM279.286 119V102.68H281.926V119H279.286ZM276.526 109.88V107.48H284.686V109.88H276.526ZM291.879 119.24C290.727 119.24 289.687 118.984 288.759 118.472C287.847 117.944 287.119 117.224 286.575 116.312C286.047 115.4 285.783 114.376 285.783 113.24C285.783 112.104 286.047 111.088 286.575 110.192C287.103 109.28 287.815 108.56 288.711 108.032C289.623 107.504 290.631 107.24 291.735 107.24C292.807 107.24 293.751 107.488 294.567 107.984C295.399 108.48 296.047 109.16 296.511 110.024C296.991 110.888 297.231 111.872 297.231 112.976C297.231 113.168 297.215 113.368 297.182 113.576C297.167 113.768 297.135 113.984 297.087 114.224H287.631V112.064H295.719L294.735 112.928C294.703 112.224 294.567 111.632 294.327 111.152C294.087 110.672 293.743 110.304 293.295 110.048C292.863 109.792 292.327 109.664 291.687 109.664C291.015 109.664 290.431 109.808 289.935 110.096C289.439 110.384 289.055 110.792 288.783 111.32C288.511 111.832 288.375 112.448 288.375 113.168C288.375 113.888 288.519 114.52 288.807 115.064C289.095 115.608 289.503 116.032 290.031 116.336C290.559 116.624 291.167 116.768 291.855 116.768C292.447 116.768 292.991 116.664 293.487 116.456C293.999 116.248 294.431 115.944 294.783 115.544L296.463 117.248C295.903 117.904 295.223 118.4 294.423 118.736C293.623 119.072 292.775 119.24 291.879 119.24ZM4.824 155L0.192 143.48H2.928L6.048 151.856L5.232 151.88L8.28 143.48H9.816L12.864 151.88L12.048 151.856L15.168 143.48H17.904L13.272 155H11.736L8.616 147.032H9.48L6.36 155H4.824ZM19.6443 155V143.48H22.2843V155H19.6443ZM20.9643 141.368C20.5163 141.368 20.1403 141.216 19.8363 140.912C19.5483 140.608 19.4043 140.232 19.4043 139.784C19.4043 139.336 19.5483 138.96 19.8363 138.656C20.1403 138.352 20.5163 138.2 20.9643 138.2C21.4283 138.2 21.8043 138.352 22.0923 138.656C22.3803 138.96 22.5243 139.336 22.5243 139.784C22.5243 140.232 22.3803 140.608 22.0923 140.912C21.8043 141.216 21.4283 141.368 20.9643 141.368ZM27.2473 155V138.68H29.8873V155H27.2473ZM24.4873 145.88V143.48H32.6473V145.88H24.4873ZM42.7116 155V148.352C42.7116 147.584 42.4636 146.952 41.9676 146.456C41.4876 145.96 40.8636 145.712 40.0956 145.712C39.5836 145.712 39.1276 145.824 38.7276 146.048C38.3276 146.272 38.0156 146.584 37.7916 146.984C37.5676 147.384 37.4556 147.84 37.4556 148.352L36.4236 147.776C36.4236 146.896 36.6156 146.12 36.9996 145.448C37.3836 144.76 37.9116 144.224 38.5836 143.84C39.2716 143.44 40.0396 143.24 40.8876 143.24C41.7516 143.24 42.5196 143.432 43.1916 143.816C43.8636 144.2 44.3916 144.736 44.7756 145.424C45.1596 146.096 45.3516 146.88 45.3516 147.776V155H42.7116ZM34.8156 155V137.72H37.4556V155H34.8156ZM53.699 155V138.2H56.459V155H53.699ZM55.595 155V152.48H65.003V155H55.595ZM55.595 147.632V145.208H64.187V147.632H55.595ZM55.595 140.72V138.2H64.883V140.72H55.595ZM71.6333 155L66.3773 143.48H69.3053L73.3133 152.864H71.5853L75.6173 143.48H78.4253L73.1693 155H71.6333ZM85.1832 155.24C84.0312 155.24 82.9912 154.984 82.0632 154.472C81.1512 153.944 80.4232 153.224 79.8792 152.312C79.3512 151.4 79.0872 150.376 79.0872 149.24C79.0872 148.104 79.3512 147.088 79.8792 146.192C80.4072 145.28 81.1192 144.56 82.0152 144.032C82.9272 143.504 83.9352 143.24 85.0392 143.24C86.1112 143.24 87.0552 143.488 87.8712 143.984C88.7032 144.48 89.3512 145.16 89.8152 146.024C90.2952 146.888 90.5352 147.872 90.5352 148.976C90.5352 149.168 90.5192 149.368 90.4872 149.576C90.4712 149.768 90.4392 149.984 90.3912 150.224H80.9352V148.064H89.0232L88.0392 148.928C88.0072 148.224 87.8712 147.632 87.6312 147.152C87.3912 146.672 87.0472 146.304 86.5992 146.048C86.1672 145.792 85.6312 145.664 84.9912 145.664C84.3192 145.664 83.7352 145.808 83.2392 146.096C82.7432 146.384 82.3592 146.792 82.0872 147.32C81.8152 147.832 81.6792 148.448 81.6792 149.168C81.6792 149.888 81.8232 150.52 82.1112 151.064C82.3992 151.608 82.8072 152.032 83.3352 152.336C83.8632 152.624 84.4712 152.768 85.1592 152.768C85.7512 152.768 86.2952 152.664 86.7912 152.456C87.3032 152.248 87.7352 151.944 88.0872 151.544L89.7672 153.248C89.2072 153.904 88.5272 154.4 87.7272 154.736C86.9272 155.072 86.0792 155.24 85.1832 155.24ZM100.798 155V148.352C100.798 147.584 100.55 146.952 100.054 146.456C99.5735 145.96 98.9495 145.712 98.1815 145.712C97.6695 145.712 97.2135 145.824 96.8135 146.048C96.4135 146.272 96.1015 146.584 95.8775 146.984C95.6535 147.384 95.5415 147.84 95.5415 148.352L94.5095 147.776C94.5095 146.896 94.7015 146.12 95.0855 145.448C95.4695 144.76 95.9975 144.224 96.6695 143.84C97.3575 143.44 98.1255 143.24 98.9735 143.24C99.8375 143.24 100.606 143.464 101.278 143.912C101.95 144.344 102.478 144.912 102.862 145.616C103.246 146.304 103.438 147.024 103.438 147.776V155H100.798ZM92.9015 155V143.48H95.5415V155H92.9015ZM107.982 155V138.68H110.622V155H107.982ZM105.222 145.88V143.48H113.382V145.88H105.222ZM125.645 155.24C124.317 155.24 123.189 155 122.261 154.52C121.333 154.04 120.501 153.336 119.765 152.408L121.637 150.536C122.101 151.208 122.653 151.736 123.293 152.12C123.933 152.488 124.749 152.672 125.741 152.672C126.669 152.672 127.405 152.48 127.949 152.096C128.509 151.712 128.789 151.184 128.789 150.512C128.789 149.952 128.645 149.496 128.357 149.144C128.069 148.792 127.685 148.504 127.205 148.28C126.741 148.04 126.221 147.832 125.645 147.656C125.085 147.464 124.517 147.256 123.941 147.032C123.381 146.792 122.861 146.496 122.381 146.144C121.917 145.792 121.541 145.336 121.253 144.776C120.965 144.216 120.821 143.504 120.821 142.64C120.821 141.648 121.061 140.808 121.541 140.12C122.037 139.416 122.701 138.88 123.533 138.512C124.365 138.144 125.293 137.96 126.317 137.96C127.421 137.96 128.405 138.176 129.269 138.608C130.149 139.04 130.861 139.592 131.405 140.264L129.533 142.136C129.053 141.592 128.549 141.192 128.021 140.936C127.509 140.664 126.917 140.528 126.245 140.528C125.413 140.528 124.757 140.696 124.277 141.032C123.813 141.368 123.581 141.84 123.581 142.448C123.581 142.96 123.725 143.376 124.013 143.696C124.301 144 124.677 144.264 125.141 144.488C125.621 144.696 126.141 144.896 126.701 145.088C127.277 145.28 127.845 145.496 128.405 145.736C128.981 145.976 129.501 146.288 129.965 146.672C130.445 147.04 130.829 147.52 131.117 148.112C131.405 148.704 131.549 149.448 131.549 150.344C131.549 151.848 131.013 153.04 129.941 153.92C128.885 154.8 127.453 155.24 125.645 155.24ZM140.359 155.24C139.479 155.24 138.695 155.056 138.007 154.688C137.319 154.304 136.775 153.784 136.375 153.128C135.991 152.472 135.799 151.728 135.799 150.896V147.584C135.799 146.752 135.999 146.008 136.399 145.352C136.799 144.696 137.343 144.184 138.031 143.816C138.719 143.432 139.495 143.24 140.359 143.24C141.399 143.24 142.335 143.512 143.167 144.056C144.015 144.584 144.679 145.304 145.159 146.216C145.655 147.112 145.903 148.128 145.903 149.264C145.903 150.384 145.655 151.4 145.159 152.312C144.679 153.208 144.015 153.92 143.167 154.448C142.335 154.976 141.399 155.24 140.359 155.24ZM139.927 152.744C140.567 152.744 141.127 152.6 141.607 152.312C142.103 152.008 142.487 151.592 142.759 151.064C143.047 150.536 143.191 149.928 143.191 149.24C143.191 148.552 143.047 147.944 142.759 147.416C142.487 146.888 142.103 146.48 141.607 146.192C141.127 145.888 140.567 145.736 139.927 145.736C139.287 145.736 138.719 145.888 138.223 146.192C137.727 146.48 137.343 146.888 137.071 147.416C136.799 147.944 136.663 148.552 136.663 149.24C136.663 149.928 136.799 150.536 137.071 151.064C137.343 151.592 137.727 152.008 138.223 152.312C138.719 152.6 139.287 152.744 139.927 152.744ZM134.191 159.8V143.48H136.831V146.576L136.375 149.384L136.831 152.168V159.8H134.191ZM153.186 155.24C152.146 155.24 151.202 154.976 150.354 154.448C149.522 153.92 148.858 153.208 148.362 152.312C147.882 151.4 147.642 150.384 147.642 149.264C147.642 148.128 147.882 147.112 148.362 146.216C148.858 145.304 149.522 144.584 150.354 144.056C151.202 143.512 152.146 143.24 153.186 143.24C154.066 143.24 154.842 143.432 155.514 143.816C156.202 144.184 156.746 144.696 157.146 145.352C157.546 146.008 157.746 146.752 157.746 147.584V150.896C157.746 151.728 157.546 152.472 157.146 153.128C156.762 153.784 156.226 154.304 155.538 154.688C154.85 155.056 154.066 155.24 153.186 155.24ZM153.618 152.744C154.594 152.744 155.378 152.416 155.97 151.76C156.578 151.104 156.882 150.264 156.882 149.24C156.882 148.552 156.746 147.944 156.474 147.416C156.202 146.888 155.818 146.48 155.322 146.192C154.842 145.888 154.274 145.736 153.618 145.736C152.978 145.736 152.41 145.888 151.914 146.192C151.434 146.48 151.05 146.888 150.762 147.416C150.49 147.944 150.354 148.552 150.354 149.24C150.354 149.928 150.49 150.536 150.762 151.064C151.05 151.592 151.434 152.008 151.914 152.312C152.41 152.6 152.978 152.744 153.618 152.744ZM156.714 155V151.904L157.17 149.096L156.714 146.312V143.48H159.354V155H156.714ZM162.534 155V143.48H165.174V155H162.534ZM165.174 148.592L164.262 148.136C164.262 146.68 164.582 145.504 165.222 144.608C165.878 143.696 166.862 143.24 168.174 143.24C168.75 143.24 169.27 143.344 169.734 143.552C170.198 143.76 170.63 144.096 171.03 144.56L169.302 146.336C169.094 146.112 168.862 145.952 168.606 145.856C168.35 145.76 168.054 145.712 167.718 145.712C166.982 145.712 166.374 145.944 165.894 146.408C165.414 146.872 165.174 147.6 165.174 148.592ZM179.878 155L175.006 149.12L179.854 143.48H182.998L177.43 149.816L177.55 148.304L183.238 155H179.878ZM172.558 155V137.72H175.198V155H172.558Z" fill="#F9FAFB"/>
</svg>
